.
..............................Site Info...........................

 -   http://www.scenetime.com  *_*   

SceneTime is going to Close sign up on march/1, hurry up! get in before the doors are closed.

     We care to share . Join us on  http://www.scenetime.com 

    Be the first to get new release at  http://www.scenetime.com

        Seed back for speed


...................................NFO:.................................................[IMG]http://i.imgur.com/2mcr9.png[/IMG]

 
TITLE: 

The Deep Blue Sea 2011 SCR AC3 XViD - INSPiRAL

IMDB: 
 
http://www.imdb.com/title/tt1700844/


SOURCES:

VIDEO - MPEG FILES  THANKS
AUDIO - MPEG FILES  THANKS
SUBS  - None Add

STATS:

Video
ID                               : 0
Format                           : MPEG-4 Visual
Format profile                   : Advanced Simple@L5
Format settings, BVOP            : 2
Format settings, QPel            : No
Format settings, GMC             : No warppoints
Format settings, Matrix          : Default (MPEG)
Muxing mode                      : Packed bitstream
Codec ID                         : XVID
Codec ID/Hint                    : XviD
Duration                         : 1h 34mn
Bit rate                         : 2 381 Kbps
Width                            : 720 pixels
Height                           : 384 pixels
Display aspect ratio             : 1.875
Frame rate                       : 25.000 fps
Color space                      : YUV
Chroma subsampling               : 4:2:0
Bit depth                        : 8 bits
Scan type                        : Progressive
Compression mode                 : Lossy
Bits/(Pixel*Frame)               : 0.344
Stream size                      : 1.57 GiB (95%)
Writing library                  : XviD 64

Audio
ID                               : 1
Format                           : AC-3
Format/Info                      : Audio Coding 3
Mode extension                   : CM (complete main)
Codec ID                         : 2000
Duration                         : 1h 34mn
Bit rate mode                    : Constant
Bit rate                         : 128 Kbps
Channel(s)                       : 2 channels
Channel positions                : Front: L R
Sampling rate                    : 48.0 KHz
Bit depth                        : 16 bits
Compression mode                 : Lossy
Stream size                      : 86.4 MiB (5%)
Alignment                        : Aligned on interleaves
Interleave, duration             : 40 ms (1.00 video frame)
Interleave, preload duration     : 512 ms



NOTES:

First off thanks to some special friends for the source files ;-) 
Ok the source itself ....for what it is,its not the best,but better than the shitty cams thats been pumping out the last few weeks.
Audio is nice but no 5.1 track.
Workdone ....increased the contrast as it was quite washed out and seem to have a haze over it.Also changed the RGB EQ and increased
the chroma a touch.Added some sharpeness,but also used a noise remover first ...
Overall half decent copy both video and audio .....and better than a cam/TS so ...

Oh as text watermarks on it that come and go throughout.


SCREENS:

[IMG]http://i.imgur.com/U3nBh.png[/IMG]
[IMG]http://i.imgur.com/mYa3G.png[/IMG]
[IMG]http://i.imgur.com/7RVIX.png[/IMG]
[IMG]http://i.imgur.com/wdJxT.png[/IMG]
[IMG]http://i.imgur.com/lDddk.png[/IMG]


GREETZ: 

Past,Present and Future

[IMG]http://i.imgur.com/2mcr9.png[/IMG]